<?xml version="1.0" encoding="UTF-8" standalone="no"?>
<!DOCTYPE svg PUBLIC "-//W3C//DTD SVG 1.1//EN"
 "http://www.w3.org/Graphics/SVG/1.1/DTD/svg11.dtd">
<!-- Generated by graphviz version 2.38.0 (20140413.2041)
 -->
<!-- Title: models_diagram Pages: 1 -->
<svg width="288pt" height="225pt"
 viewBox="0.00 0.00 287.69 225.00" xmlns="http://www.w3.org/2000/svg" xmlns:xlink="http://www.w3.org/1999/xlink">
<g id="graph0" class="graph" transform="scale(1 1) rotate(0) translate(4 221)">
<title>models_diagram</title>
<polygon fill="none" stroke="none" points="-4,4 -4,-221 283.688,-221 283.688,4 -4,4"/>
<!-- _diagram_info -->
<g id="node1" class="node"><title>_diagram_info</title>
<text text-anchor="start" x="8" y="-202.6" font-family="Times,serif" font-size="13.00">Models diagram</text>
<text text-anchor="start" x="8" y="-189.6" font-family="Times,serif" font-size="13.00">Date: Apr 14 2016 &#45; 20:13</text>
<text text-anchor="start" x="8" y="-176.6" font-family="Times,serif" font-size="13.00">Migration version: 20160414031745</text>
<text text-anchor="start" x="8" y="-163.6" font-family="Times,serif" font-size="13.00">Generated by RailRoady 1.4.2</text>
<text text-anchor="start" x="8" y="-150.6" font-family="Times,serif" font-size="13.00">http://railroady.prestonlee.com</text>
</g>
<!-- List -->
<g id="node2" class="node"><title>List</title>
<ellipse fill="none" stroke="black" cx="252.688" cy="-90" rx="27" ry="18"/>
<text text-anchor="middle" x="252.688" y="-85.8" font-family="Times,serif" font-size="14.00">List</text>
</g>
<!-- Task -->
<g id="node3" class="node"><title>Task</title>
<ellipse fill="none" stroke="black" cx="252.688" cy="-18" rx="27" ry="18"/>
<text text-anchor="middle" x="252.688" y="-13.8" font-family="Times,serif" font-size="14.00">Task</text>
</g>
<!-- List&#45;&gt;Task -->
<g id="edge1" class="edge"><title>List&#45;&gt;Task</title>
<path fill="none" stroke="#03bdab" d="M252.688,-63.6398C252.688,-58.0629 252.688,-52.1319 252.688,-46.4761"/>
<ellipse fill="none" stroke="#03bdab" cx="252.688" cy="-67.6966" rx="4" ry="4"/>
<polygon fill="#03bdab" stroke="#03bdab" points="252.688,-46.1043 257.188,-36.1043 252.688,-41.1043 252.688,-36.1043 252.688,-36.1043 252.688,-36.1043 252.688,-41.1043 248.188,-36.1044 252.688,-46.1043 252.688,-46.1043"/>
</g>
<!-- User -->
<g id="node4" class="node"><title>User</title>
<ellipse fill="none" stroke="black" cx="252.688" cy="-180.5" rx="27" ry="18"/>
<text text-anchor="middle" x="252.688" y="-176.3" font-family="Times,serif" font-size="14.00">User</text>
</g>
<!-- User&#45;&gt;List -->
<g id="edge2" class="edge"><title>User&#45;&gt;List</title>
<path fill="none" stroke="#86617b" d="M252.688,-154.189C252.688,-142.971 252.688,-129.752 252.688,-118.311"/>
<ellipse fill="none" stroke="#86617b" cx="252.688" cy="-158.436" rx="4" ry="4"/>
<polygon fill="#86617b" stroke="#86617b" points="252.688,-118.011 257.188,-108.011 252.688,-113.011 252.688,-108.011 252.688,-108.011 252.688,-108.011 252.688,-113.011 248.188,-108.011 252.688,-118.011 252.688,-118.011"/>
</g>
</g>
</svg>
