<?xml version="1.0" encoding="UTF-8" standalone="no"?>
<!DOCTYPE svg PUBLIC "-//W3C//DTD SVG 1.1//EN"
 "http://www.w3.org/Graphics/SVG/1.1/DTD/svg11.dtd">
<!-- Generated by graphviz version 2.38.0 (20140413.2041)
 -->
<!-- Title: models_diagram Pages: 1 -->
<svg width="482pt" height="439pt"
 viewBox="0.00 0.00 481.55 439.00" xmlns="http://www.w3.org/2000/svg" xmlns:xlink="http://www.w3.org/1999/xlink">
<g id="graph0" class="graph" transform="scale(1 1) rotate(0) translate(4 435)">
<title>models_diagram</title>
<polygon fill="none" stroke="none" points="-4,4 -4,-435 477.55,-435 477.55,4 -4,4"/>
<!-- _diagram_info -->
<g id="node1" class="node"><title>_diagram_info</title>
<text text-anchor="start" x="8" y="-388.6" font-family="Times,serif" font-size="13.00">Models diagram</text>
<text text-anchor="start" x="8" y="-375.6" font-family="Times,serif" font-size="13.00">Date: Apr 14 2016 &#45; 20:13</text>
<text text-anchor="start" x="8" y="-362.6" font-family="Times,serif" font-size="13.00">Migration version: 20160414031745</text>
<text text-anchor="start" x="8" y="-349.6" font-family="Times,serif" font-size="13.00">Generated by RailRoady 1.4.2</text>
<text text-anchor="start" x="8" y="-336.6" font-family="Times,serif" font-size="13.00">http://railroady.prestonlee.com</text>
</g>
<!-- List -->
<g id="node2" class="node"><title>List</title>
<path fill="none" stroke="black" d="M237.825,-165.5C237.825,-165.5 461.55,-165.5 461.55,-165.5 467.55,-165.5 473.55,-171.5 473.55,-177.5 473.55,-177.5 473.55,-253.5 473.55,-253.5 473.55,-259.5 467.55,-265.5 461.55,-265.5 461.55,-265.5 237.825,-265.5 237.825,-265.5 231.825,-265.5 225.825,-259.5 225.825,-253.5 225.825,-253.5 225.825,-177.5 225.825,-177.5 225.825,-171.5 231.825,-165.5 237.825,-165.5"/>
<text text-anchor="middle" x="349.688" y="-250.3" font-family="Times,serif" font-size="14.00">List</text>
<polyline fill="none" stroke="black" points="225.825,-243.5 473.55,-243.5 "/>
<text text-anchor="start" x="233.825" y="-228.3" font-family="Times,serif" font-size="14.00">id :integer</text>
<text text-anchor="start" x="233.825" y="-214.3" font-family="Times,serif" font-size="14.00">title :character varying</text>
<text text-anchor="start" x="233.825" y="-200.3" font-family="Times,serif" font-size="14.00">created_at :timestamp without time zone</text>
<text text-anchor="start" x="233.825" y="-186.3" font-family="Times,serif" font-size="14.00">updated_at :timestamp without time zone</text>
<text text-anchor="start" x="233.825" y="-172.3" font-family="Times,serif" font-size="14.00">user_id :integer</text>
</g>
<!-- Task -->
<g id="node3" class="node"><title>Task</title>
<path fill="none" stroke="black" d="M237.825,-0.5C237.825,-0.5 461.55,-0.5 461.55,-0.5 467.55,-0.5 473.55,-6.5 473.55,-12.5 473.55,-12.5 473.55,-116.5 473.55,-116.5 473.55,-122.5 467.55,-128.5 461.55,-128.5 461.55,-128.5 237.825,-128.5 237.825,-128.5 231.825,-128.5 225.825,-122.5 225.825,-116.5 225.825,-116.5 225.825,-12.5 225.825,-12.5 225.825,-6.5 231.825,-0.5 237.825,-0.5"/>
<text text-anchor="middle" x="349.688" y="-113.3" font-family="Times,serif" font-size="14.00">Task</text>
<polyline fill="none" stroke="black" points="225.825,-106.5 473.55,-106.5 "/>
<text text-anchor="start" x="233.825" y="-91.3" font-family="Times,serif" font-size="14.00">id :integer</text>
<text text-anchor="start" x="233.825" y="-77.3" font-family="Times,serif" font-size="14.00">title :character varying</text>
<text text-anchor="start" x="233.825" y="-63.3" font-family="Times,serif" font-size="14.00">note :text</text>
<text text-anchor="start" x="233.825" y="-49.3" font-family="Times,serif" font-size="14.00">completed :boolean</text>
<text text-anchor="start" x="233.825" y="-35.3" font-family="Times,serif" font-size="14.00">created_at :timestamp without time zone</text>
<text text-anchor="start" x="233.825" y="-21.3" font-family="Times,serif" font-size="14.00">updated_at :timestamp without time zone</text>
<text text-anchor="start" x="233.825" y="-7.3" font-family="Times,serif" font-size="14.00">list_id :integer</text>
</g>
<!-- List&#45;&gt;Task -->
<g id="edge1" class="edge"><title>List&#45;&gt;Task</title>
<path fill="none" stroke="#c2390a" d="M349.688,-157.218C349.688,-151.245 349.688,-145.115 349.688,-138.995"/>
<ellipse fill="none" stroke="#c2390a" cx="349.688" cy="-161.299" rx="4" ry="4"/>
<polygon fill="#c2390a" stroke="#c2390a" points="349.688,-138.732 354.188,-128.732 349.688,-133.732 349.688,-128.732 349.688,-128.732 349.688,-128.732 349.688,-133.732 345.188,-128.732 349.688,-138.732 349.688,-138.732"/>
</g>
<!-- User -->
<g id="node4" class="node"><title>User</title>
<path fill="none" stroke="black" d="M237.825,-302.5C237.825,-302.5 461.55,-302.5 461.55,-302.5 467.55,-302.5 473.55,-308.5 473.55,-314.5 473.55,-314.5 473.55,-418.5 473.55,-418.5 473.55,-424.5 467.55,-430.5 461.55,-430.5 461.55,-430.5 237.825,-430.5 237.825,-430.5 231.825,-430.5 225.825,-424.5 225.825,-418.5 225.825,-418.5 225.825,-314.5 225.825,-314.5 225.825,-308.5 231.825,-302.5 237.825,-302.5"/>
<text text-anchor="middle" x="349.688" y="-415.3" font-family="Times,serif" font-size="14.00">User</text>
<polyline fill="none" stroke="black" points="225.825,-408.5 473.55,-408.5 "/>
<text text-anchor="start" x="233.825" y="-393.3" font-family="Times,serif" font-size="14.00">id :integer</text>
<text text-anchor="start" x="233.825" y="-379.3" font-family="Times,serif" font-size="14.00">name :character varying</text>
<text text-anchor="start" x="233.825" y="-365.3" font-family="Times,serif" font-size="14.00">last_name :character varying</text>
<text text-anchor="start" x="233.825" y="-351.3" font-family="Times,serif" font-size="14.00">username :character varying</text>
<text text-anchor="start" x="233.825" y="-337.3" font-family="Times,serif" font-size="14.00">email :character varying</text>
<text text-anchor="start" x="233.825" y="-323.3" font-family="Times,serif" font-size="14.00">created_at :timestamp without time zone</text>
<text text-anchor="start" x="233.825" y="-309.3" font-family="Times,serif" font-size="14.00">updated_at :timestamp without time zone</text>
</g>
<!-- User&#45;&gt;List -->
<g id="edge2" class="edge"><title>User&#45;&gt;List</title>
<path fill="none" stroke="#df4225" d="M349.688,-294.249C349.688,-288.077 349.688,-281.876 349.688,-275.814"/>
<ellipse fill="none" stroke="#df4225" cx="349.688" cy="-298.311" rx="4" ry="4"/>
<polygon fill="#df4225" stroke="#df4225" points="349.688,-275.775 354.188,-265.775 349.688,-270.775 349.688,-265.775 349.688,-265.775 349.688,-265.775 349.688,-270.775 345.188,-265.775 349.688,-275.775 349.688,-275.775"/>
</g>
</g>
</svg>
